<?xml version="1.0" encoding="UTF-8"?>
<svg id="Calque_2" data-name="Calque 2" xmlns="http://www.w3.org/2000/svg" viewBox="0 0 1280 640">
  <defs>
    <style>
      .cls-1 {
        fill: #353434;
      }

      .cls-1, .cls-2, .cls-3, .cls-4 {
        stroke-width: 0px;
      }

      .cls-2 {
        fill: #1c1e25;
      }

      .cls-3 {
        fill: #c5c5c4;
      }

      .cls-4 {
        fill: #fff;
      }
    </style>
  </defs>
  <g id="Calque_2-2" data-name="Calque 2">
    <rect class="cls-2" width="1280" height="640"/>
  </g>
  <g id="Calque_3" data-name="Calque 3">
    <g>
      <g>
        <polygon class="cls-4" points="615.25 327.54 614.62 327.54 587.91 287.94 575.21 287.94 575.21 354.59 590.15 354.59 590.15 314.6 590.79 314.6 617.6 354.59 630.19 354.59 630.19 287.94 615.25 287.94 615.25 327.54"/>
        <path class="cls-4" d="M680.51,304.52c-3.7-2-8.07-3-13.11-3s-9.42,1.03-13.13,3.1c-3.71,2.07-6.58,4.95-8.59,8.64-2.02,3.69-3.03,7.98-3.03,12.87v4.54c0,5.31,1,9.81,3,13.53s4.86,6.54,8.57,8.47,8.11,2.91,13.18,2.91,9.42-.97,13.11-2.91c3.69-1.94,6.55-4.77,8.57-8.5,2.02-3.73,3.03-8.24,3.03-13.55v-4.59c0-4.95-1.01-9.27-3.03-12.96-2.02-3.69-4.88-6.54-8.57-8.54ZM676.34,330.91c0,2.21-.29,4.31-.85,6.27-.57,1.97-1.51,3.58-2.81,4.83-1.3,1.25-3.06,1.88-5.27,1.88s-3.98-.63-5.3-1.88c-1.32-1.25-2.27-2.87-2.86-4.86-.59-1.99-.88-4.07-.88-6.25v-4.83c0-2.25.31-4.35.93-6.32.62-1.97,1.59-3.56,2.91-4.79s3.05-1.83,5.2-1.83,3.87.6,5.18,1.81c1.3,1.2,2.25,2.79,2.86,4.76.6,1.97.9,4.09.9,6.37v4.83Z"/>
        <path class="cls-4" d="M736.25,310.5h-.73c-.65-1.76-1.67-3.29-3.05-4.59-1.38-1.3-3.07-2.3-5.05-3-1.99-.7-4.2-1.05-6.64-1.05-3.87,0-7.25.93-10.13,2.78s-5.12,4.52-6.71,8.01c-1.6,3.48-2.39,7.71-2.39,12.7v6.25c0,4.98.79,9.23,2.37,12.74,1.58,3.52,3.8,6.19,6.67,8.03,2.86,1.84,6.23,2.76,10.11,2.76,1.86,0,3.6-.21,5.22-.63,1.63-.42,3.1-1.03,4.42-1.81s2.43-1.72,3.34-2.81c.91-1.09,1.58-2.3,2-3.64h.73v8.35h15.48v-70.17h-15.62v26.07ZM736.25,330.96c0,2.6-.4,4.81-1.2,6.62-.8,1.81-1.9,3.18-3.3,4.13-1.4.94-3.03,1.42-4.88,1.42s-3.48-.47-4.88-1.42c-1.4-.94-2.48-2.35-3.25-4.22-.77-1.87-1.15-4.16-1.15-6.86v-4.2c0-2.7.38-4.98,1.15-6.84.76-1.86,1.84-3.25,3.22-4.2,1.38-.94,2.99-1.42,4.81-1.42s3.45.46,4.88,1.37c1.43.91,2.55,2.25,3.37,4,.81,1.76,1.22,3.89,1.22,6.4v5.22Z"/>
        <path class="cls-4" d="M801.41,304.52c-3.7-2-8.07-3-13.11-3s-9.42,1.03-13.13,3.1c-3.71,2.07-6.58,4.95-8.59,8.64-2.02,3.69-3.03,7.98-3.03,12.87v4.54c0,5.31,1,9.81,3,13.53s4.86,6.54,8.57,8.47,8.11,2.91,13.18,2.91,9.42-.97,13.11-2.91c3.69-1.94,6.55-4.77,8.57-8.5,2.02-3.73,3.03-8.24,3.03-13.55v-4.59c0-4.95-1.01-9.27-3.03-12.96-2.02-3.69-4.88-6.54-8.57-8.54ZM797.23,330.91c0,2.21-.29,4.31-.85,6.27-.57,1.97-1.51,3.58-2.81,4.83-1.3,1.25-3.06,1.88-5.27,1.88s-3.98-.63-5.3-1.88c-1.32-1.25-2.27-2.87-2.86-4.86-.59-1.99-.88-4.07-.88-6.25v-4.83c0-2.25.31-4.35.93-6.32.62-1.97,1.59-3.56,2.91-4.79s3.05-1.83,5.2-1.83,3.87.6,5.18,1.81c1.3,1.2,2.25,2.79,2.86,4.76.6,1.97.9,4.09.9,6.37v4.83Z"/>
        <polygon class="cls-4" points="874.82 339.31 874.19 339.31 865.4 302.45 850.85 302.45 842.25 339.31 841.62 339.31 835.08 302.45 819.01 302.45 832.54 354.59 849.04 354.59 857.83 319.34 858.32 319.34 867.25 354.59 883.61 354.59 896.94 302.45 881.46 302.45 874.82 339.31"/>
        <path class="cls-4" d="M949.63,306.26c-3.12-3.06-7.31-4.59-12.55-4.59-3.26,0-5.93.55-8.03,1.64-2.1,1.09-3.73,2.39-4.88,3.91-1.16,1.51-1.96,2.94-2.42,4.27h-.78v-9.03h-15.09v52.15h15.58v-28.81c0-2.34.38-4.35,1.15-6.03.76-1.68,1.84-2.96,3.22-3.86,1.38-.9,2.97-1.34,4.76-1.34,1.4,0,2.72.3,3.96.9,1.24.6,2.25,1.6,3.03,3,.78,1.4,1.17,3.34,1.17,5.81v30.32h15.58v-34.47c0-6.18-1.56-10.81-4.69-13.87Z"/>
      </g>
      <g>
        <g id="Calque_4" data-name="Calque 4">
          <rect class="cls-3" x="325.69" y="272.38" width="185.53" height="111.32" rx="19.79" ry="19.79"/>
          <rect class="cls-4" x="325.69" y="256.3" width="185.53" height="111.32" rx="19.79" ry="19.79"/>
        </g>
        <g id="Calque_5" data-name="Calque 5">
          <path class="cls-1" d="M381.7,282.67l26.47,27.37c.66.68.17,1.82-.77,1.82h-15.73c-.59,0-1.08.48-1.08,1.08v26.98c0,.59-.48,1.08-1.08,1.08h-17.18c-.59,0-1.08-.48-1.08-1.08v-26.98c0-.59-.48-1.08-1.08-1.08h-15.73c-.95,0-1.43-1.14-.77-1.82l26.47-27.37c.42-.43,1.13-.43,1.55,0Z"/>
          <path class="cls-1" d="M456.74,282.67l26.47,27.37c.66.68.17,1.82-.77,1.82h-15.73c-.59,0-1.08.48-1.08,1.08v26.98c0,.59-.48,1.08-1.08,1.08h-17.18c-.59,0-1.08-.48-1.08-1.08v-26.98c0-.59-.48-1.08-1.08-1.08h-15.73c-.95,0-1.43-1.14-.77-1.82l26.47-27.37c.42-.43,1.13-.43,1.55,0h0Z"/>
        </g>
      </g>
    </g>
  </g>
</svg>